<svg width="28" height="28" viewBox="0 0 28 28" fill="none" xmlns="http://www.w3.org/2000/svg">
<g clip-path="url(#clip0_1397_3629)">
<path d="M27.3595 12.4534L15.547 0.640949C14.6927 -0.213324 13.3077 -0.213324 12.4534 0.640949L0.640949 12.4534C-0.213324 13.3077 -0.213324 14.6928 0.640949 15.547C1.29578 16.2018 2.26227 16.3541 3.06273 16.005V24.719C3.06273 26.5312 4.5318 28.0002 6.34398 28.0002H21.6565C23.4687 28.0002 24.9377 26.5312 24.9377 24.719V16.005C25.7382 16.3541 26.7047 16.2018 27.3595 15.547C28.2138 14.6927 28.2138 13.3077 27.3595 12.4534ZM17.8284 23.6252C17.8284 24.2293 17.3387 24.719 16.7346 24.719H11.2659C10.6618 24.719 10.1721 24.2293 10.1721 23.6252V17.0627C10.1721 16.4587 10.6618 15.969 11.2659 15.969H16.7346C17.3387 15.969 17.8284 16.4587 17.8284 17.0627V23.6252Z" fill="#FE7E2D"/>
</g>
<defs>
<clipPath id="clip0_1397_3629">
<rect width="28" height="28" fill="white"/>
</clipPath>
</defs>
</svg>
