<svg width="28" height="28" viewBox="0 0 28 28" fill="none" xmlns="http://www.w3.org/2000/svg">
<path d="M2.89658 3.37933C1.29669 3.37933 0 4.67603 0 6.27587C0 7.87571 1.29669 9.17245 2.89658 9.17245C4.49642 9.17245 5.79312 7.87576 5.79312 6.27587C5.79312 4.67598 4.49642 3.37933 2.89658 3.37933ZM2.89658 11.1034C1.29669 11.1034 0 12.4002 0 14C0 15.5999 1.29669 16.8966 2.89658 16.8966C4.49642 16.8966 5.79312 15.5999 5.79312 14C5.79312 12.4002 4.49642 11.1034 2.89658 11.1034ZM2.89658 18.8276C1.29669 18.8276 0 20.1243 0 21.7241C0 23.324 1.29669 24.6207 2.89658 24.6207C4.49642 24.6207 5.79312 23.324 5.79312 21.7241C5.79312 20.1243 4.49642 18.8276 2.89658 18.8276ZM10.6207 8.20691H26.069C27.1358 8.20691 28 7.34275 28 6.27587C28 5.20899 27.1358 4.34483 26.069 4.34483H10.6207C9.55381 4.34483 8.68965 5.20899 8.68965 6.27587C8.68965 7.34275 9.55381 8.20691 10.6207 8.20691ZM26.069 12.069H10.6207C9.55381 12.069 8.68965 12.9331 8.68965 14C8.68965 15.0669 9.55381 15.9311 10.6207 15.9311H26.069C27.1358 15.9311 28 15.0669 28 14C28 12.9331 27.1358 12.069 26.069 12.069ZM26.069 19.7931H10.6207C9.55381 19.7931 8.68965 20.6573 8.68965 21.7241C8.68965 22.791 9.55381 23.6552 10.6207 23.6552H26.069C27.1358 23.6552 28 22.791 28 21.7241C28 20.6573 27.1358 19.7931 26.069 19.7931Z" fill="#BDBDBD"/>
</svg>
