<svg width="173" height="146" viewBox="0 0 173 146" fill="none" xmlns="http://www.w3.org/2000/svg">
<path fill-rule="evenodd" clip-rule="evenodd" d="M38.6887 0.0666366C32.5013 0.849558 27.3344 4.86208 25.063 10.648C23.8709 13.685 23.606 16.7652 24.2414 20.203C24.3046 20.5452 24.3697 20.8703 24.3859 20.9253C24.414 21.0207 24.0803 21.0245 17.2367 21.0086L10.0581 20.9919L7.66189 20.7249C6.34398 20.5781 5.19447 20.4578 5.10742 20.4577L4.94922 20.4576L5.04467 20.6197C5.13578 20.7744 5.02144 22.7529 2.55526 63.6918C1.13355 87.2922 -0.0162335 106.615 0.000173433 106.632C0.0166368 106.648 0.22491 106.624 0.463064 106.579C1.17167 106.443 2.49753 106.279 3.47591 106.207C4.67571 106.119 7.79315 106.168 8.90228 106.292C13.4113 106.796 17.3706 108.172 20.821 110.435C22.1501 111.306 23.7897 112.612 23.8457 112.844C23.8772 112.974 24.1101 113.054 24.1753 112.957C24.2807 112.799 27.2386 111.716 29.5653 110.984C39.8675 107.742 53.1526 105.409 67.5107 104.32C73.7986 103.843 79.0607 103.631 86.1165 103.572C93.9506 103.507 101.972 103.753 110.358 104.317C112.691 104.474 112.56 104.467 112.522 104.429C112.486 104.392 109.225 104.006 106.837 103.754C89.406 101.922 71.9837 101.296 57.9823 101.998C43.1013 102.745 31.5828 104.958 23.8856 108.55C23.5833 108.691 23.3359 108.793 23.3359 108.777C23.3359 108.677 23.7354 108.201 24.1463 107.811C25.4083 106.613 27.9651 105.3 31.0883 104.247C39.7861 101.314 53.8929 99.5091 72.7542 98.9152C80.5318 98.6703 95.3757 98.6579 101.48 98.8913C101.992 98.9109 102.394 98.909 102.373 98.8871C102.264 98.7728 94.9056 98.1585 89.8377 97.8407C81.0806 97.2915 73.2783 97.0654 65.0581 97.1225C60.2894 97.1555 58.6374 97.1938 54.8531 97.359C46.3778 97.7288 38.713 98.5293 32.3287 99.7114C30.8223 99.9903 30.1904 99.9987 29.4924 99.749C28.4533 99.3773 27.6126 98.5199 27.2859 97.4987C27.1942 97.2119 14.9001 28.9242 14.6406 27.26C14.4627 26.1189 15.1291 25.0055 16.2214 24.6188C16.439 24.5418 24.8407 23.5865 24.884 23.6338C24.8939 23.6447 25.1461 24.9389 25.4446 26.51C25.8527 28.6587 26.0225 29.4392 26.1297 29.6597C26.4809 30.3818 27.3027 30.7329 28.0987 30.5008C28.3609 30.4243 28.4921 30.3399 28.7472 30.0837C29.101 29.7283 29.2556 29.3832 29.2565 28.9464C29.2568 28.8042 29.0255 27.4711 28.7424 25.984C28.4594 24.497 28.2371 23.2715 28.2485 23.2607C28.26 23.2499 32.7347 22.7542 38.1924 22.159C43.6501 21.5639 48.1536 21.0678 48.2001 21.0566C48.2466 21.0455 43.6734 21.0334 38.0373 21.0298C32.4013 21.0261 27.79 21.013 27.79 21.0005C27.79 20.988 27.7039 20.5235 27.5987 19.9681C27.3009 18.3977 27.2571 17.98 27.2584 16.7242C27.2597 15.4361 27.3408 14.7425 27.629 13.5566C28.2174 11.1343 29.615 8.72668 31.4367 6.99703C33.4418 5.09315 35.9012 3.88836 38.6795 3.44891C39.5909 3.30478 41.7215 3.30568 42.5901 3.4506C44.9565 3.84537 46.8707 4.65941 48.7357 6.06404C51.1423 7.87651 52.9194 10.5546 53.6345 13.4464C53.7149 13.7715 54.1982 16.2347 54.7086 18.9203C55.7051 24.1641 55.6752 24.0452 56.1028 24.4567C56.7182 25.0489 57.7361 25.0362 58.3696 24.4285C58.616 24.1921 58.8368 23.7649 58.8873 23.4271C58.9122 23.2605 58.6791 21.9265 58.0123 18.4207C57.5124 15.7921 57.0392 13.3525 56.9608 12.9995C56.453 10.7122 55.3533 8.39911 53.8374 6.42934C53.338 5.78025 51.738 4.16157 51.0755 3.63501C50.2165 2.95221 49.0975 2.24701 48.0591 1.73384C46.3182 0.873542 44.9781 0.447039 42.9836 0.11845C42.1958 -0.0113105 39.5565 -0.0431568 38.6887 0.0666366ZM10.307 21.5182C10.3429 21.7592 13.2391 41.3273 16.7431 65.0028C20.2469 88.6782 23.2526 108.947 23.4222 110.045C23.5918 111.143 23.7306 112.069 23.7306 112.105C23.7306 112.14 23.5496 111.904 23.3284 111.58C22.059 109.72 20.4215 108.058 18.5435 106.721C17.3151 105.847 15.7036 104.98 14.3431 104.462C14.002 104.332 13.6644 104.202 13.5929 104.172L13.4628 104.117L13.5007 102.944C13.614 99.4406 13.0657 92.8359 12.0838 85.8754C11.6077 82.5009 11.0253 78.9786 11.1297 80.1057C11.6648 85.8792 11.3384 93.5711 10.2239 101.455C10.0857 102.433 9.9649 103.24 9.95549 103.25C9.94607 103.259 9.78775 103.242 9.60355 103.212C8.65415 103.055 7.43445 102.973 6.02683 102.971C4.70937 102.969 3.25783 103.043 2.799 103.134C2.64564 103.165 2.64395 103.162 2.64395 102.869C2.64395 102.706 3.53218 84.719 4.61775 62.8983C5.70337 41.0776 6.57762 23.1682 6.56065 23.0995C6.5324 22.9855 6.68774 22.8926 8.35031 22.0288C9.35159 21.5085 10.1868 21.0822 10.2063 21.0814C10.2258 21.0805 10.2711 21.2771 10.307 21.5182ZM147.911 28.9416C146.93 28.9928 145.548 29.1589 144.612 29.3381C144.287 29.4004 143.951 29.4514 143.865 29.4514C143.726 29.4514 142.679 29.7113 141.258 30.0981C140.978 30.1741 140.496 30.3394 140.186 30.4655C139.876 30.5916 139.59 30.695 139.551 30.6953C139.474 30.6959 138.178 31.2795 137.705 31.5256C136.849 31.9725 136.579 32.1216 136.421 32.2369C136.325 32.3071 136.113 32.4409 135.951 32.5343C135.532 32.7755 134.818 33.2808 134.551 33.5257C134.425 33.6404 134.286 33.7458 134.241 33.76C134.145 33.7909 133.744 34.1575 133.038 34.8627C131.591 36.3069 130.851 37.3862 129.984 39.3221C129.577 40.2281 129.098 41.8523 129 42.6595C128.969 42.9084 128.906 43.4047 128.86 43.7625C128.554 46.1193 128.809 49.1591 129.471 51.0516C129.543 51.2581 129.62 51.5019 129.641 51.5932C129.673 51.7365 130.203 52.9076 130.346 53.1523C130.713 53.7808 131.019 54.2612 131.116 54.3597C131.181 54.4268 131.303 54.5816 131.385 54.7039C131.467 54.8262 131.642 55.0504 131.773 55.2022C132.208 55.7068 133.855 57.3439 134.062 57.4782C134.174 57.5509 134.348 57.6871 134.448 57.7807C134.656 57.9758 135.211 58.3614 135.919 58.8028C136.382 59.0914 137.995 59.9402 138.08 59.9402C138.101 59.9402 138.414 60.0802 138.774 60.2513C139.134 60.4224 139.467 60.5624 139.514 60.5624C139.561 60.5624 139.693 60.6104 139.808 60.6691C139.923 60.7278 140.22 60.853 140.468 60.9474C140.716 61.0418 141.254 61.2474 141.662 61.4042C142.071 61.5611 142.477 61.7062 142.564 61.7266C142.652 61.7471 143.06 61.8888 143.471 62.0416C143.882 62.1944 144.326 62.3414 144.457 62.3682C144.589 62.395 145.001 62.5249 145.373 62.6567C145.745 62.7887 146.194 62.9307 146.371 62.9724C146.547 63.0142 146.966 63.1372 147.301 63.2459C147.636 63.3545 148.139 63.5053 148.418 63.581C148.697 63.6567 149.227 63.823 149.595 63.9506C149.963 64.0782 150.297 64.1826 150.338 64.1826C150.378 64.1826 150.762 64.3179 151.19 64.4834C151.619 64.6489 152.082 64.8167 152.22 64.8564C152.357 64.896 152.702 65.0406 152.987 65.1777C153.271 65.3149 153.531 65.427 153.563 65.427C153.596 65.427 153.783 65.5202 153.98 65.6341C154.177 65.748 154.455 65.907 154.599 65.9876C155.063 66.2481 155.941 66.8761 156.142 67.0919C156.173 67.1251 156.291 67.2216 156.404 67.3062C156.721 67.5432 157.264 68.2564 157.495 68.739C157.901 69.5859 157.932 69.72 157.96 70.7725C157.982 71.6148 157.971 71.7926 157.868 72.2064C157.67 72.9983 157.214 73.8453 156.689 74.3926C156.453 74.6388 155.947 75.0443 155.795 75.1094C155.707 75.1472 155.597 75.2076 155.55 75.2436C155.17 75.5376 153.931 75.9794 153.013 76.1479C152.013 76.3313 146.714 76.3816 144.81 76.2256C143.131 76.0882 141.02 75.7419 140.186 75.4673C139.351 75.1923 138.792 74.9892 138.724 74.9365C138.691 74.9108 138.412 74.7561 138.103 74.5928C137.795 74.4294 137.453 74.2266 137.342 74.142C137.232 74.0574 136.939 73.8403 136.691 73.6595C135.77 72.9886 134.451 71.5032 133.928 70.5481C133.835 70.3783 133.651 70.0486 133.519 69.8157C133.387 69.5826 133.28 69.3665 133.28 69.3354C133.28 69.3043 133.168 69.004 133.033 68.6681C132.897 68.3322 132.755 67.9173 132.717 67.7462C132.679 67.5751 132.523 67.0549 132.372 66.5901C132.22 66.1254 132.096 65.7095 132.096 65.6657C132.096 65.6221 131.958 65.1623 131.79 64.644C131.622 64.1258 131.467 63.6127 131.445 63.5038C131.423 63.3949 131.284 62.9367 131.135 62.4856C130.987 62.0345 130.848 61.5763 130.826 61.4674C130.804 61.3586 130.677 60.9386 130.544 60.5341C130.41 60.1297 130.283 59.7097 130.262 59.6008C130.24 59.4919 130.099 59.0337 129.947 58.5826C129.796 58.1315 129.671 57.725 129.671 57.6793C129.671 57.6336 129.533 57.1627 129.364 56.6328C129.195 56.103 128.915 55.1986 128.74 54.623C128.566 54.0475 128.301 53.1948 128.151 52.7281C128.001 52.2614 127.862 51.8033 127.843 51.7099C127.824 51.6166 127.683 51.1457 127.529 50.6635C127.376 50.1812 127.126 49.3794 126.973 48.8817C126.407 47.0342 126.042 45.8587 125.753 44.9504C125.59 44.437 125.44 43.9407 125.42 43.8473C125.4 43.754 125.258 43.2831 125.104 42.8009C124.951 42.3187 124.696 41.5041 124.538 40.9908C124.381 40.4775 124.114 39.6247 123.947 39.0958C123.779 38.567 123.626 38.0579 123.607 37.9645C123.588 37.8712 123.45 37.4258 123.3 36.9746C123.15 36.5235 123.01 36.0654 122.989 35.9565C122.967 35.8476 122.842 35.4403 122.711 35.0514C122.579 34.6625 122.454 34.2498 122.433 34.1343C122.384 33.8703 122.139 33.3246 121.966 33.0946C121.893 32.9983 121.834 32.8949 121.834 32.8648C121.834 32.8346 121.76 32.7384 121.669 32.651L121.503 32.492L117.962 32.438C115.17 32.3956 108.824 32.4164 108.772 32.4683C108.767 32.474 108.799 32.6312 108.844 32.8175C108.888 33.004 108.985 33.4238 109.059 33.7504C109.132 34.0771 109.287 34.6371 109.403 34.9949C109.519 35.3526 109.65 35.7981 109.695 35.9847C109.739 36.1714 109.891 36.6932 110.032 37.1443C110.174 37.5954 110.312 38.079 110.34 38.219C110.368 38.3589 110.504 38.8325 110.643 39.2714C110.782 39.7103 110.896 40.1056 110.896 40.1498C110.896 40.1941 111.001 40.5605 111.129 40.9641C111.257 41.3676 111.432 41.9651 111.518 42.2918C111.604 42.6185 111.778 43.2074 111.905 43.6004C112.032 43.9935 112.136 44.3499 112.136 44.3923C112.136 44.4348 112.262 44.8768 112.414 45.3746C112.567 45.8724 112.742 46.4578 112.804 46.6756C112.865 46.8934 113.008 47.377 113.123 47.7503C113.237 48.1237 113.47 48.8873 113.64 49.4473C113.811 50.0073 114.085 50.8982 114.25 51.4271C114.415 51.956 114.682 52.8214 114.844 53.3503C115.294 54.8206 116.213 57.7692 116.641 59.12C116.799 59.6178 116.951 60.1269 116.979 60.2513C117.007 60.3757 117.144 60.8212 117.282 61.2412C117.531 61.9949 117.879 63.0951 118.446 64.9179C118.751 65.8962 119.147 67.1589 119.672 68.821C119.844 69.3654 120.125 70.2563 120.296 70.8007C120.988 72.996 121.203 73.6065 121.517 74.2637C121.655 74.5524 121.786 74.8519 121.809 74.9293C121.832 75.0067 121.909 75.1594 121.981 75.2687C122.053 75.378 122.207 75.6502 122.325 75.8737C122.659 76.5084 123.184 77.3763 123.328 77.532C123.4 77.6098 123.506 77.753 123.563 77.8501C124.012 78.6143 125.662 80.4507 126.74 81.3849C127.214 81.796 128.031 82.4532 128.068 82.4532C128.084 82.4532 128.259 82.5741 128.457 82.7219C128.929 83.0731 129.809 83.6411 129.881 83.6411C129.912 83.6411 130.023 83.6996 130.128 83.771C130.474 84.0062 132.239 84.8855 132.366 84.8855C132.432 84.8855 132.916 85.0739 133.308 85.2525C133.401 85.2949 133.604 85.3598 133.759 85.3966C133.914 85.4335 134.244 85.5261 134.492 85.6025C135.102 85.7906 135.903 85.9957 136.211 86.0432C136.351 86.0647 136.985 86.1978 137.621 86.339C138.257 86.4801 139.005 86.6297 139.284 86.6714C139.563 86.7132 140.362 86.8507 141.06 86.9771C141.757 87.1034 142.556 87.2313 142.836 87.2613C143.115 87.2912 143.813 87.3668 144.387 87.4293C146.328 87.6408 146.948 87.6775 148.531 87.6748C149.683 87.6728 150.292 87.6466 150.786 87.5779C151.158 87.526 151.957 87.4609 152.562 87.4331C155.155 87.3137 156.439 87.1717 157.721 86.8621C157.969 86.8022 158.375 86.7149 158.622 86.668C159.352 86.53 160.863 86.0325 162.062 85.5357C162.654 85.2907 163.941 84.6718 164.064 84.5733C164.11 84.5361 164.322 84.4113 164.533 84.2961C164.945 84.0722 165.368 83.7978 166.175 83.2314C166.986 82.662 167.5 82.2183 168.356 81.3502C169.124 80.5706 169.214 80.4724 169.369 80.2541C169.444 80.149 169.573 79.9891 169.656 79.8988C169.739 79.8085 169.926 79.5537 170.071 79.3324C170.216 79.1113 170.421 78.8174 170.526 78.6793C170.631 78.5413 170.717 78.3956 170.717 78.3555C170.717 78.3154 170.769 78.2166 170.832 78.136C170.996 77.9261 171.774 76.3365 171.928 75.8959C172 75.6913 172.147 75.2759 172.256 74.9727C172.365 74.6696 172.472 74.3132 172.494 74.1808C172.515 74.0484 172.592 73.6909 172.665 73.3864C172.953 72.18 173 71.6804 173 69.8391C173 67.9985 172.966 67.6401 172.656 66.2472C172.249 64.4167 171.444 62.685 170.428 61.4562C170.292 61.2923 170.13 61.0943 170.068 61.0164C169.758 60.6259 168.815 59.6622 168.232 59.1402C167.768 58.7243 166.96 58.0735 166.907 58.0735C166.889 58.0735 166.73 57.9616 166.554 57.8249C166.378 57.6881 166.133 57.5219 166.009 57.4554C165.885 57.389 165.657 57.2545 165.501 57.1566C165.195 56.9634 163.728 56.2069 163.659 56.2069C163.636 56.2069 163.356 56.0796 163.038 55.924C162.72 55.7685 162.429 55.6412 162.393 55.6412C162.356 55.6412 162.048 55.5151 161.707 55.361C161.367 55.207 161.016 55.0629 160.927 55.0409C160.838 55.0188 160.509 54.8912 160.195 54.7572C159.882 54.6232 159.438 54.4514 159.209 54.3754C158.98 54.2995 158.589 54.1567 158.341 54.0582C158.093 53.9596 157.776 53.8459 157.636 53.8056C157.497 53.7653 157.104 53.6286 156.762 53.5019C156.421 53.3752 156.041 53.2467 155.917 53.2163C155.793 53.1859 155.298 53.029 154.817 52.8677C154.337 52.7064 153.766 52.5155 153.549 52.4436C152.62 52.1358 152.036 51.9279 151.302 51.6442C150.872 51.4781 150.489 51.3423 150.449 51.3423C150.41 51.3423 150.177 51.2502 149.933 51.1378C149.689 51.0253 149.362 50.8887 149.207 50.8341C148.96 50.7472 148.067 50.3386 147.488 50.0475C147.01 49.8076 146.196 49.3307 145.944 49.1429C145.006 48.4459 144.318 47.4675 144.093 46.5115C143.862 45.5329 143.976 43.7465 144.315 43.0465C145.015 41.6001 146.075 40.7508 147.741 40.3021C148.409 40.1223 148.435 40.1198 149.715 40.1174C150.946 40.1151 151.046 40.123 151.688 40.2752C152.06 40.3633 152.505 40.4823 152.676 40.5396C153.108 40.6843 154.151 41.2504 154.407 41.4796C154.524 41.584 154.639 41.6695 154.663 41.6695C154.726 41.6696 155.371 42.34 155.56 42.6029C155.912 43.0901 156.03 43.3007 156.235 43.8003C156.495 44.4317 156.668 45.0767 156.715 45.5867L156.75 45.9685H164.523C168.798 45.9685 172.295 45.9551 172.295 45.9387C172.295 45.7223 172.097 44.1202 172.016 43.6854C171.958 43.37 171.894 42.9847 171.874 42.8292C171.834 42.5201 171.702 42.0325 171.446 41.2453C171.354 40.9653 171.239 40.609 171.189 40.4534C171.14 40.2979 171.04 40.0433 170.968 39.8878C170.333 38.5173 169.957 37.8007 169.706 37.4837C169.62 37.3748 169.504 37.1967 169.448 37.0878C169.341 36.8794 169.276 36.796 168.472 35.8433C167.984 35.2646 167.165 34.4437 166.656 34.0222C165.765 33.284 165.567 33.1282 165.519 33.1282C165.49 33.1282 165.369 33.0469 165.251 32.9476C164.582 32.384 162.156 31.0994 160.991 30.692C160.743 30.6052 160.337 30.4559 160.089 30.3601C159.841 30.2643 159.435 30.1353 159.187 30.0733C158.939 30.0113 158.419 29.8707 158.031 29.7608C157.643 29.6509 157.072 29.5239 156.762 29.4784C156.452 29.433 155.915 29.3456 155.569 29.2842C154.126 29.0285 153.014 28.9417 150.871 28.9176C149.739 28.9049 148.407 28.9157 147.911 28.9416ZM55.3323 29.4554C54.2927 29.4995 52.8815 29.6573 51.7803 29.8526C51.4392 29.913 50.843 30.0116 50.4553 30.0716C50.0677 30.1316 49.3954 30.2747 48.9612 30.3895C48.5271 30.5044 47.9617 30.6449 47.7048 30.7017C47.1472 30.8251 45.6874 31.299 44.9018 31.6117C44.5917 31.7351 44.2615 31.8555 44.168 31.8792C43.6506 32.0106 40.8867 33.4007 39.9177 34.017C39.7813 34.1037 39.5612 34.2383 39.4285 34.3161C39.1296 34.4913 38.4771 34.9485 38.0964 35.2494C37.9389 35.3738 37.7312 35.5229 37.6348 35.5808C37.5383 35.6386 37.3593 35.785 37.2369 35.906C37.1145 36.0271 36.9937 36.1262 36.9686 36.1262C36.9159 36.1262 36.5008 36.4956 35.5478 37.3907C34.8697 38.0275 33.9413 39.018 33.3718 39.712C33.2012 39.9198 32.9729 40.1945 32.8644 40.3223C32.7558 40.4502 32.5909 40.6641 32.4979 40.7977C32.4049 40.9312 32.1385 41.3122 31.9059 41.6442C31.4528 42.2909 31.2945 42.5363 30.8806 43.233C30.7353 43.4776 30.5296 43.8176 30.4233 43.9888C30.161 44.4111 28.9655 46.7953 28.8917 47.0433C28.8545 47.1681 28.6999 47.5323 28.3466 48.327C28.2886 48.4575 28.2411 48.5983 28.2411 48.6398C28.2411 48.6814 28.1561 48.9183 28.0522 49.1662C27.9483 49.4142 27.833 49.7188 27.796 49.8433C27.759 49.9677 27.5796 50.5404 27.3975 51.116C27.2153 51.6915 27.0259 52.3279 26.9766 52.5301C26.9272 52.7323 26.7994 53.2414 26.6923 53.6614C26.5853 54.0814 26.4588 54.6796 26.411 54.9907C26.3633 55.3018 26.2726 55.8491 26.2096 56.2069C25.9756 57.5347 25.9221 58.1929 25.8904 60.1404C25.8494 62.6477 25.9191 63.5937 26.2985 65.6816C26.5529 67.0816 26.8217 68.1096 27.2895 69.4715C27.4178 69.8448 27.5814 70.321 27.6531 70.5296C27.9873 71.5011 29.4024 74.3802 29.8902 75.081C29.9755 75.2036 30.0453 75.3246 30.0453 75.3499C30.0453 75.4194 31.0059 76.8614 31.1555 77.0165C31.2271 77.0908 31.2857 77.1816 31.2857 77.2184C31.2857 77.2552 31.3696 77.3855 31.4721 77.5077C31.6356 77.7026 31.928 78.0809 32.4873 78.8211C32.8394 79.2871 33.8072 80.3812 34.7272 81.3535C35.164 81.8151 36.31 82.9044 36.5046 83.0429C36.5646 83.0857 36.7252 83.2245 36.8613 83.3514C36.9976 83.4782 37.1562 83.597 37.2137 83.6153C37.2714 83.6337 37.3185 83.6703 37.3185 83.6967C37.3185 83.7729 38.5859 84.709 39.4259 85.2532C39.57 85.3465 39.8877 85.5539 40.1319 85.714C40.3761 85.8742 40.6359 86.0235 40.7091 86.046C40.7824 86.0684 40.8804 86.1173 40.9269 86.1547C41.0768 86.2751 41.8186 86.6956 41.881 86.6956C41.9142 86.6956 42.1636 86.8192 42.435 86.9703C42.7063 87.1214 42.9919 87.2641 43.0694 87.2876C43.1469 87.311 43.4421 87.4399 43.7252 87.574C44.0084 87.7082 44.3256 87.8417 44.43 87.8708C44.5345 87.8999 44.9116 88.0403 45.2683 88.1829C45.6249 88.3255 45.9928 88.4596 46.0858 88.4809C46.1788 88.5022 46.5883 88.629 46.9957 88.7626C47.4032 88.8963 47.9741 89.0576 48.2643 89.121C48.5546 89.1845 49.16 89.3266 49.6096 89.4368C50.0593 89.5471 50.7189 89.6759 51.0755 89.7231C51.4322 89.7703 51.9523 89.8455 52.2314 89.89C53.9201 90.16 54.7281 90.218 57.1647 90.2449C59.9386 90.2753 61.1133 90.1993 63.0566 89.8637C63.2426 89.8316 63.6486 89.7689 63.9587 89.7245C64.2688 89.6801 64.9284 89.5378 65.4246 89.4084C65.9207 89.2791 66.4789 89.1397 66.665 89.0987C66.851 89.0577 67.3458 88.9072 67.7644 88.7642C68.183 88.6212 68.6144 88.4762 68.7229 88.4418C68.8946 88.3876 69.2807 88.2289 69.8787 87.9666C69.9717 87.9258 70.1113 87.8743 70.1888 87.852C70.3453 87.8071 71.2302 87.3998 71.7111 87.1514C72.8209 86.5781 73.1584 86.3952 73.3659 86.2547C73.4946 86.1676 73.6487 86.0776 73.7083 86.0546C73.8438 86.0025 75.2711 85.0634 75.3477 84.976C75.3787 84.9406 75.4604 84.8867 75.5292 84.8562C75.6607 84.7978 75.8129 84.6777 76.9546 83.7314C78.2871 82.6267 79.5421 81.3759 80.4652 80.2324C80.6895 79.9544 80.9936 79.5856 81.1409 79.4126C81.2882 79.2397 81.4087 79.068 81.4087 79.0309C81.4087 78.9939 81.4625 78.9152 81.5284 78.8559C81.6342 78.7607 82.1184 78.0694 82.4478 77.5435C82.512 77.4409 82.6504 77.2245 82.7553 77.0627C83.1747 76.4158 84.1484 74.5916 84.4221 73.9401C84.5266 73.6912 84.6878 73.3349 84.7804 73.1482C84.8729 72.9615 84.9734 72.7197 85.0035 72.6108C85.0337 72.5019 85.1719 72.1329 85.3108 71.7906C85.6038 71.0685 86.055 69.76 86.2079 69.1886C86.2663 68.9708 86.4131 68.5127 86.5342 68.1704C86.6554 67.8282 86.8176 67.3446 86.8948 67.0957C87.0553 66.5777 87.3425 65.7186 87.7022 64.6801C87.8391 64.2849 88.0111 63.7631 88.0843 63.5205C88.2139 63.0913 88.3507 62.679 88.906 61.0432C89.0538 60.6077 89.2503 60.0222 89.3426 59.7422C89.5499 59.1133 89.8007 58.375 90.1207 57.4513C90.2554 57.0624 90.3827 56.6679 90.4036 56.5745C90.4245 56.4812 90.5642 56.0612 90.7142 55.6412C90.8642 55.2212 91.0036 54.8012 91.0239 54.7079C91.0443 54.6146 91.1845 54.1946 91.3355 53.7746C91.4865 53.3546 91.6394 52.8896 91.6752 52.7413C91.711 52.593 91.7581 52.4607 91.7798 52.4472C91.8205 52.422 92.1892 53.5494 92.2879 54.0008C92.3185 54.1408 92.4341 54.5354 92.5446 54.8776C92.6553 55.2198 92.7709 55.6143 92.8017 55.7543C92.8325 55.8943 92.981 56.4034 93.1319 56.8857C93.2827 57.3679 93.4218 57.8515 93.4411 57.9604C93.4604 58.0693 93.5888 58.5147 93.7266 58.9503C93.8643 59.3858 94.0046 59.8695 94.0385 60.025C94.0723 60.1806 94.2031 60.6388 94.3291 61.0432C94.455 61.4477 94.5807 61.8917 94.6085 62.03C94.6363 62.1683 94.7643 62.6137 94.893 63.0199C95.0216 63.426 95.1835 63.9874 95.2525 64.2674C95.3215 64.5474 95.4813 65.1202 95.6076 65.5402C96.082 67.1177 96.3075 67.9011 96.4139 68.3401C96.4742 68.589 96.6347 69.149 96.7706 69.5846C96.9065 70.0201 97.0421 70.491 97.0719 70.631C97.1017 70.771 97.24 71.2547 97.3792 71.7058C97.5184 72.1569 97.67 72.6787 97.7162 72.8654C97.7625 73.052 97.8934 73.4975 98.0073 73.8553C98.1211 74.213 98.2389 74.6312 98.2691 74.7844C98.2993 74.9377 98.438 75.4165 98.5773 75.8486C98.7165 76.2806 98.8305 76.6792 98.8305 76.7345C98.8305 76.7898 98.9327 77.1509 99.0574 77.537C99.1822 77.9232 99.3355 78.4427 99.3982 78.6916C99.5258 79.1983 99.8772 80.3717 99.9644 80.5825C99.9957 80.658 100.045 80.8489 100.075 81.0067C100.104 81.1645 100.239 81.65 100.375 82.0855C100.51 82.5211 100.658 83.0302 100.704 83.2168C100.75 83.4035 100.882 83.849 100.999 84.2067C101.115 84.5645 101.243 85.0141 101.285 85.2059C101.409 85.7843 101.859 86.5266 102.258 86.8147L102.507 86.9941L105.25 87.0396C108.768 87.0981 116.027 87.1045 116.026 87.0491C116.025 87.0258 115.975 86.8158 115.914 86.5825C115.853 86.3491 115.803 86.0993 115.802 86.0273C115.801 85.9019 115.489 84.8745 114.894 83.0407C114.742 82.5705 114.617 82.1505 114.618 82.1074C114.618 82.0643 114.48 81.5962 114.311 81.0674C113.869 79.6856 113.39 78.1491 113.35 77.9845C113.318 77.8509 113.144 77.2948 112.477 75.1846C112.32 74.6868 112.192 74.2541 112.193 74.2229C112.195 74.1918 112.057 73.7337 111.888 73.2048C111.454 71.8526 110.967 70.2894 110.927 70.122C110.887 69.9569 110.531 68.8109 110.083 67.4068C109.91 66.8624 109.768 66.3848 109.768 66.3455C109.768 66.3062 109.632 65.848 109.464 65.3273C109.297 64.8066 109.028 63.9478 108.867 63.419C108.705 62.8901 108.451 62.0755 108.302 61.6089C108.152 61.1422 108.001 60.6458 107.967 60.5058C107.903 60.2473 107.602 59.2832 107.037 57.5228C106.865 56.9865 106.724 56.5155 106.724 56.4763C106.724 56.437 106.6 56.0103 106.447 55.5281C105.698 53.1616 105.542 52.6586 105.508 52.5018C105.488 52.4085 105.35 51.9631 105.202 51.5119C105.053 51.0608 104.916 50.6154 104.896 50.5221C104.86 50.3494 104.61 49.5435 104.049 47.7935C103.877 47.2572 103.736 46.7863 103.736 46.747C103.736 46.7077 103.599 46.2429 103.43 45.714C103.261 45.1851 102.979 44.2815 102.803 43.7059C102.628 43.1304 102.361 42.2649 102.211 41.7827C102.06 41.3005 101.922 40.8423 101.904 40.7645C101.886 40.6867 101.746 40.2286 101.594 39.7463C101.443 39.2641 101.175 38.3987 100.999 37.8231C100.823 37.2476 100.556 36.3821 100.405 35.8999C100.255 35.4177 100.116 34.9468 100.096 34.8534C100.076 34.7601 99.97 34.4165 99.8598 34.0898C99.4874 32.9855 99.2487 32.6403 98.7575 32.4958C98.577 32.4427 96.8728 32.4216 91.6137 32.407C83.5551 32.3848 83.9651 32.3827 83.7485 32.4462C83.6555 32.4735 83.5049 32.5125 83.4138 32.5329C83.2262 32.5749 82.6236 33.165 82.5624 33.3665C82.5408 33.4377 82.4668 33.6231 82.3981 33.7787C82.3293 33.9343 82.2028 34.2906 82.1171 34.5706C81.9747 35.0354 81.7394 35.7423 81.157 37.4554C81.0407 37.7977 80.8944 38.2431 80.832 38.4453C80.7262 38.788 80.6343 39.0634 80.0022 40.9342C79.8708 41.3231 79.6799 41.9086 79.578 42.2352C79.4761 42.5619 79.2839 43.1473 79.1509 43.5362C79.018 43.9251 78.7772 44.6378 78.6159 45.1201C78.4545 45.6023 78.2398 46.2386 78.1386 46.5342C78.0375 46.8297 77.8716 47.3388 77.7699 47.6655C77.6681 47.9922 77.516 48.4376 77.4319 48.6554C77.3478 48.8732 77.2087 49.2804 77.123 49.5604C77.0372 49.8404 76.7602 50.6677 76.5074 51.3988C76.2547 52.1299 75.9849 52.9405 75.9079 53.2001C75.831 53.4597 75.734 53.7397 75.6924 53.8223C75.6508 53.9049 75.5475 54.1889 75.463 54.4533C75.3784 54.7178 75.2468 55.1123 75.1704 55.3301C75.0941 55.5479 74.9545 55.9552 74.8602 56.2352C74.7658 56.5152 74.626 56.9224 74.5495 57.1402C74.473 57.358 74.3442 57.7398 74.2634 57.9887C74.1825 58.2376 74.0061 58.7403 73.8715 59.1059C73.7368 59.4715 73.5904 59.9042 73.5462 60.0675C73.5019 60.2308 73.3373 60.7059 73.1804 61.1231C73.0235 61.5404 72.8951 61.9151 72.8951 61.9558C72.8951 61.9966 72.7838 62.3043 72.6477 62.6398C72.5117 62.9751 72.3625 63.3768 72.3164 63.5323C72.2359 63.8032 72.0458 64.2819 71.818 64.7876C71.7592 64.918 71.7111 65.0553 71.7111 65.0926C71.7111 65.1298 71.6073 65.3793 71.4805 65.6471C71.3536 65.915 71.1771 66.3123 71.0884 66.5301C70.8261 67.1733 69.8784 69.0106 69.5797 69.4548C69.4961 69.5792 69.3836 69.7611 69.3296 69.859C69.085 70.3034 68.0772 71.5288 67.4903 72.0953C66.8174 72.7449 65.5887 73.704 65.1897 73.8912C65.1018 73.9324 64.8523 74.0801 64.6353 74.2194C64.4182 74.3587 64.2196 74.4738 64.1938 74.4751C64.1681 74.4764 63.9017 74.5948 63.6018 74.7383C63.151 74.9538 62.0892 75.3324 61.3088 75.5558C61.2157 75.5824 60.721 75.6741 60.2093 75.7595C59.3648 75.9005 59.1438 75.9149 57.8131 75.9164C56.4893 75.9178 56.2508 75.9029 55.3532 75.7628C54.8066 75.6775 54.2865 75.5851 54.1974 75.5575C54.1084 75.5299 53.7184 75.4128 53.3308 75.2973C52.3231 74.9971 51.1512 74.5108 50.3757 74.0712C48.4379 72.9727 46.8673 71.6304 45.5946 69.9853C45.4306 69.7734 45.2305 69.4935 45.1498 69.3634C45.0691 69.2333 44.9106 69.0051 44.7974 68.8564C44.6843 68.7077 44.5917 68.565 44.5917 68.5395C44.5917 68.5139 44.49 68.3313 44.3658 68.1337C44.2415 67.9361 44.1116 67.7109 44.0771 67.6331C44.0426 67.5553 43.8778 67.2082 43.711 66.8618C43.5442 66.5154 43.4077 66.2085 43.4077 66.1799C43.4077 66.1512 43.2895 65.811 43.1451 65.4239C42.9031 64.7753 42.8198 64.4615 42.5076 63.023C42.1066 61.1754 42.0947 58.7753 42.4766 56.7725C42.7097 55.5502 42.9114 54.7039 43.0967 54.1705C43.2102 53.8439 43.3358 53.462 43.3758 53.322C43.5642 52.6622 44.6373 50.4952 44.9306 50.182C44.9902 50.1184 45.0968 49.9623 45.1677 49.835C45.5575 49.1348 46.8848 47.6821 47.791 46.9637C48.5595 46.3547 48.976 46.0572 49.215 45.947C49.3235 45.8969 49.5899 45.742 49.807 45.6027C50.024 45.4634 50.2296 45.3488 50.2639 45.3479C50.2981 45.347 50.5772 45.2284 50.8841 45.0844C51.7524 44.6768 53.4666 44.1595 54.2329 44.0739C54.4034 44.0549 54.8094 43.9961 55.135 43.9433C55.9622 43.8092 58.599 43.8091 59.3354 43.9432C59.6145 43.994 59.9824 44.0524 60.1529 44.073C60.5407 44.1197 61.1412 44.2788 61.8783 44.53C62.1916 44.6368 62.4755 44.7241 62.5093 44.7241C62.572 44.7241 63.1331 44.9793 63.9869 45.3963C64.6035 45.6974 65.3143 46.1055 65.5655 46.3026C65.7585 46.454 66.1335 46.662 66.1619 46.6334C66.183 46.6123 66.6231 45.3348 66.7907 44.8089C66.8699 44.5601 67.071 43.9746 67.2376 43.5079C67.4041 43.0413 67.5401 42.632 67.5396 42.5985C67.5392 42.565 67.6564 42.2214 67.8 41.8349C67.9436 41.4484 68.0942 41.0049 68.1347 40.8494C68.1751 40.6938 68.4149 39.9684 68.6676 39.2373C68.9204 38.5061 69.179 37.7425 69.2423 37.5403C69.3056 37.3381 69.49 36.7908 69.652 36.3241C70.1828 34.7953 70.3695 34.2377 70.5043 33.7787C70.5774 33.5298 70.7163 33.1225 70.813 32.8737C71.0903 32.1596 71.0997 32.2105 70.6585 32.0286C70.4467 31.9412 69.9775 31.7456 69.6159 31.5939C69.2542 31.4422 68.9212 31.3181 68.8759 31.3181C68.8305 31.3181 68.5809 31.2333 68.3212 31.1295C68.0615 31.0258 67.6714 30.8877 67.4543 30.8227C66.3308 30.4863 65.1205 30.1701 64.6877 30.0997C64.4202 30.0563 63.9564 29.9711 63.6571 29.9103C61.3691 29.4461 58.8262 29.3071 55.3323 29.4554ZM166.319 93.54V95.2935H165.445H164.571V96.736V98.1784H165.445H166.319V102.562V106.946H168.433H170.548V102.562V98.1784H171.422H172.295V96.736V95.2935H171.422H170.548V93.54V91.7865H168.433H166.319V93.54ZM121.129 95.0348C120.043 95.2852 119.085 95.9629 118.423 96.949L118.226 97.2435V96.2686V95.2935H116.14H114.054V101.12V106.946H116.111H118.169L118.17 104.104C118.17 101.2 118.211 100.285 118.373 99.5359C118.618 98.4008 119.174 97.9757 120.358 98.0177C121.002 98.0404 121.259 98.1472 121.533 98.5062C121.898 98.9837 121.907 99.0886 121.932 103.227L121.954 106.946H124.005H126.055L126.08 103.538C126.096 101.434 126.128 100.014 126.166 99.8283C126.351 98.9097 126.59 98.4855 127.076 98.2129C127.349 98.0599 127.449 98.0374 127.938 98.0176C128.605 97.9908 128.907 98.0644 129.214 98.3278C129.475 98.5515 129.628 98.9105 129.721 99.5185C129.762 99.7844 129.784 101.142 129.784 103.436V106.946H131.898H134.013L134.012 103.142C134.011 101.05 133.986 99.0325 133.955 98.6592C133.85 97.3936 133.578 96.7229 132.885 96.0283C132.419 95.5605 132.019 95.3203 131.363 95.1149C130.982 94.9956 130.836 94.9827 129.897 94.9848C128.91 94.987 128.828 94.9957 128.374 95.1453C127.37 95.4768 126.646 96.0266 125.985 96.9595C125.912 97.0627 125.895 97.0466 125.726 96.7099C125.511 96.2836 125.078 95.8033 124.669 95.5394C124.508 95.4349 124.14 95.2687 123.852 95.17C123.36 95.0014 123.272 94.9896 122.398 94.9737C121.753 94.962 121.364 94.9808 121.129 95.0348ZM141.436 95.0134C140.731 95.132 139.838 95.4997 139.312 95.8878C138.987 96.1282 138.313 96.8298 138.084 97.1681C137.265 98.3757 136.878 100.193 137.053 102.009C137.204 103.571 137.678 104.823 138.455 105.712C139.495 106.902 140.62 107.399 142.272 107.399C144.02 107.399 145.213 106.81 146.345 105.39L146.525 105.164L146.527 106.055L146.529 106.946H148.474H150.419V101.12V95.2935H148.446H146.473L146.47 96.1845C146.467 97.0406 146.463 97.0699 146.371 96.9342C146.146 96.6021 145.681 96.0941 145.37 95.8414C144.603 95.2174 143.735 94.9514 142.498 94.9612C142.064 94.9646 141.586 94.9882 141.436 95.0134ZM161.28 95.1848C160.018 95.4958 159.001 96.3778 158.393 97.6884L158.258 97.9804L158.257 96.637L158.256 95.2935H156.255H154.253V101.12V106.946H156.364H158.474L158.496 104.104C158.515 101.629 158.53 101.217 158.615 100.922C158.942 99.7779 159.645 99.0382 160.655 98.7741C161.091 98.6601 162.137 98.6611 162.691 98.7758C162.925 98.8244 163.123 98.8563 163.129 98.8465C163.136 98.8368 163.229 97.9958 163.337 96.9777C163.498 95.4479 163.519 95.1214 163.455 95.0969C163.413 95.0806 163.006 95.0692 162.551 95.0714C161.935 95.0744 161.611 95.1034 161.28 95.1848ZM144.902 98.3467C146.036 98.7003 146.656 99.6658 146.664 101.091C146.667 101.793 146.589 102.184 146.349 102.666C146.038 103.289 145.568 103.685 144.887 103.898C144.394 104.052 143.436 104.046 142.964 103.887C142.188 103.625 141.708 103.148 141.4 102.336C141.225 101.873 141.178 100.81 141.307 100.257C141.535 99.288 142.113 98.6172 142.954 98.3477C143.43 98.1952 144.415 98.1947 144.902 98.3467Z" fill="#FE7E2D"/>
<path d="M89.46 141V127.64H94.98C96.6067 127.64 97.8467 127.98 98.7 128.66C99.5667 129.327 100 130.34 100 131.7C100 132.833 99.7133 133.713 99.14 134.34C98.5667 134.953 97.74 135.367 96.66 135.58L100.68 141H97.82L94.14 135.76H91.9V141H89.46ZM91.9 133.8H94.56C95.5733 133.8 96.32 133.64 96.8 133.32C97.2933 132.987 97.54 132.453 97.54 131.72C97.54 130.96 97.3067 130.427 96.84 130.12C96.3733 129.8 95.6133 129.64 94.56 129.64H91.9V133.8ZM106.871 141.2C105.911 141.2 105.044 141.013 104.271 140.64C103.498 140.267 102.878 139.72 102.411 139C101.958 138.267 101.731 137.367 101.731 136.3C101.731 135.3 101.944 134.433 102.371 133.7C102.811 132.967 103.391 132.4 104.111 132C104.844 131.6 105.664 131.4 106.571 131.4C107.504 131.4 108.318 131.58 109.011 131.94C109.704 132.287 110.244 132.767 110.631 133.38C111.018 133.993 111.211 134.693 111.211 135.48C111.211 135.707 111.178 135.96 111.111 136.24C111.044 136.52 110.964 136.747 110.871 136.92H104.071C104.138 137.44 104.298 137.88 104.551 138.24C104.818 138.587 105.164 138.853 105.591 139.04C106.018 139.213 106.518 139.3 107.091 139.3C107.691 139.3 108.224 139.213 108.691 139.04C109.171 138.853 109.631 138.607 110.071 138.3L110.811 139.94C110.264 140.353 109.664 140.667 109.011 140.88C108.358 141.093 107.644 141.2 106.871 141.2ZM104.071 135.32H108.831C108.844 135.28 108.851 135.247 108.851 135.22C108.864 135.18 108.871 135.147 108.871 135.12C108.871 134.733 108.791 134.407 108.631 134.14C108.471 133.86 108.224 133.64 107.891 133.48C107.558 133.32 107.138 133.24 106.631 133.24C106.204 133.24 105.811 133.327 105.451 133.5C105.104 133.66 104.811 133.9 104.571 134.22C104.331 134.527 104.164 134.893 104.071 135.32ZM117.963 141.2C116.976 141.2 116.103 141 115.343 140.6C114.596 140.187 114.003 139.613 113.563 138.88C113.136 138.147 112.923 137.287 112.923 136.3C112.923 135.313 113.136 134.453 113.563 133.72C114.003 132.987 114.596 132.42 115.343 132.02C116.103 131.607 116.976 131.4 117.963 131.4C118.643 131.4 119.263 131.5 119.823 131.7C120.383 131.887 120.896 132.16 121.363 132.52L120.543 134.24C120.129 133.947 119.703 133.733 119.263 133.6C118.836 133.453 118.403 133.38 117.963 133.38C117.416 133.38 116.943 133.5 116.543 133.74C116.143 133.967 115.829 134.3 115.603 134.74C115.376 135.167 115.263 135.687 115.263 136.3C115.263 136.9 115.376 137.42 115.603 137.86C115.829 138.3 116.143 138.64 116.543 138.88C116.943 139.107 117.416 139.22 117.963 139.22C118.403 139.22 118.836 139.153 119.263 139.02C119.703 138.873 120.129 138.653 120.543 138.36L121.363 140.08C120.896 140.44 120.383 140.72 119.823 140.92C119.263 141.107 118.643 141.2 117.963 141.2ZM123.481 141V131.6H125.681V133.14C125.934 132.567 126.281 132.147 126.721 131.88C127.161 131.613 127.654 131.48 128.201 131.48C128.388 131.48 128.554 131.493 128.701 131.52C128.848 131.533 128.961 131.56 129.041 131.6V133.78C128.854 133.74 128.668 133.707 128.481 133.68C128.294 133.653 128.114 133.64 127.941 133.64C127.314 133.64 126.794 133.887 126.381 134.38C125.968 134.86 125.761 135.553 125.761 136.46V141H123.481ZM134.441 141.2C133.361 141.2 132.514 140.893 131.901 140.28C131.301 139.667 131.001 138.72 131.001 137.44V131.6H133.281V137.1C133.281 137.82 133.427 138.353 133.721 138.7C134.027 139.047 134.487 139.22 135.101 139.22C135.821 139.22 136.381 138.98 136.781 138.5C137.194 138.007 137.401 137.327 137.401 136.46V131.6H139.681V141H137.481V139.72C137.201 140.173 136.807 140.533 136.301 140.8C135.794 141.067 135.174 141.2 134.441 141.2ZM142.407 141V131.6H144.687V141H142.407ZM143.547 129.9C143.134 129.9 142.807 129.78 142.567 129.54C142.327 129.287 142.207 128.973 142.207 128.6C142.207 128.227 142.327 127.927 142.567 127.7C142.807 127.46 143.134 127.34 143.547 127.34C143.947 127.34 144.267 127.46 144.507 127.7C144.76 127.94 144.887 128.247 144.887 128.62C144.887 128.993 144.76 129.3 144.507 129.54C144.267 129.78 143.947 129.9 143.547 129.9ZM151.547 141.12C150.48 141.12 149.7 140.88 149.207 140.4C148.714 139.92 148.467 139.173 148.467 138.16V133.52H146.467V131.6H148.467V128.92H150.767V131.6H153.127V133.52H150.767V137.96C150.767 138.373 150.874 138.687 151.087 138.9C151.3 139.1 151.62 139.2 152.047 139.2C152.207 139.2 152.394 139.193 152.607 139.18C152.834 139.167 153.007 139.147 153.127 139.12V140.94C152.94 140.993 152.7 141.033 152.407 141.06C152.127 141.1 151.84 141.12 151.547 141.12ZM159.879 141.2C158.919 141.2 158.052 141.013 157.279 140.64C156.506 140.267 155.886 139.72 155.419 139C154.966 138.267 154.739 137.367 154.739 136.3C154.739 135.3 154.952 134.433 155.379 133.7C155.819 132.967 156.399 132.4 157.119 132C157.852 131.6 158.672 131.4 159.579 131.4C160.512 131.4 161.326 131.58 162.019 131.94C162.712 132.287 163.252 132.767 163.639 133.38C164.026 133.993 164.219 134.693 164.219 135.48C164.219 135.707 164.186 135.96 164.119 136.24C164.052 136.52 163.972 136.747 163.879 136.92H157.079C157.146 137.44 157.306 137.88 157.559 138.24C157.826 138.587 158.172 138.853 158.599 139.04C159.026 139.213 159.526 139.3 160.099 139.3C160.699 139.3 161.232 139.213 161.699 139.04C162.179 138.853 162.639 138.607 163.079 138.3L163.819 139.94C163.272 140.353 162.672 140.667 162.019 140.88C161.366 141.093 160.652 141.2 159.879 141.2ZM157.079 135.32H161.839C161.852 135.28 161.859 135.247 161.859 135.22C161.872 135.18 161.879 135.147 161.879 135.12C161.879 134.733 161.799 134.407 161.639 134.14C161.479 133.86 161.232 133.64 160.899 133.48C160.566 133.32 160.146 133.24 159.639 133.24C159.212 133.24 158.819 133.327 158.459 133.5C158.112 133.66 157.819 133.9 157.579 134.22C157.339 134.527 157.172 134.893 157.079 135.32ZM166.43 141V131.6H168.63V133.14C168.884 132.567 169.23 132.147 169.67 131.88C170.11 131.613 170.604 131.48 171.15 131.48C171.337 131.48 171.504 131.493 171.65 131.52C171.797 131.533 171.91 131.56 171.99 131.6V133.78C171.804 133.74 171.617 133.707 171.43 133.68C171.244 133.653 171.064 133.64 170.89 133.64C170.264 133.64 169.744 133.887 169.33 134.38C168.917 134.86 168.71 135.553 168.71 136.46V141H166.43Z" fill="#3B5B93"/>
</svg>
